<svg viewBox="0 0 276 45" fill="none" xmlns="http://www.w3.org/2000/svg"><g clip-path="url(#a)" fill="#fff"><path d="M22.5 18.75a3.75 3.75 0 1 0 0-7.5 3.75 3.75 0 0 0 0 7.5ZM15 26.25a3.75 3.75 0 1 0 0-7.5 3.75 3.75 0 0 0 0 7.5ZM30 26.25a3.75 3.75 0 1 0 0-7.5 3.75 3.75 0 0 0 0 7.5ZM22.5 33.75a3.75 3.75 0 1 0 0-7.5 3.75 3.75 0 0 0 0 7.5Z"/><path d="M22.5 3.75A18.75 18.75 0 0 0 11.25 37.5h-7.5v3.75H22.5a18.75 18.75 0 0 0 0-37.5Zm0 33.75a15 15 0 1 1 0-30 15 15 0 0 1 0 30ZM46.8 11.7h10.5v3.63h-5.13v6.12h4.47v3.75h-4.47V36H46.8V11.7Zm13.038 0h5.37V36h-5.37V11.7Zm8.993 0h5.37v20.67h5.58V36h-10.95V11.7Zm13.631 0h5.76l2.67 14.13 2.88-14.13h5.55l.42 24.3h-3.81l-.45-16.17L92.662 36h-3.39l-3-16.29-.36 16.29h-3.87l.42-24.3Zm26.892 24.66c-2.32 0-4.05-.61-5.19-1.83-1.12-1.24-1.72-3.2-1.8-5.88l4.59-.69c.02 1.54.2 2.65.54 3.33.36.66.89.99 1.59.99.9 0 1.35-.59 1.35-1.77 0-.94-.22-1.75-.66-2.43-.42-.68-1.09-1.41-2.01-2.19l-2.1-1.83c-1.04-.88-1.85-1.81-2.43-2.79-.56-1-.84-2.18-.84-3.54 0-2.04.6-3.61 1.8-4.71 1.22-1.1 2.89-1.65 5.01-1.65 2.3 0 3.86.67 4.68 2.01.84 1.34 1.29 2.97 1.35 4.89l-4.62.57c-.04-1.26-.16-2.16-.36-2.7-.18-.56-.59-.84-1.23-.84-.46 0-.82.2-1.08.6-.24.38-.36.81-.36 1.29 0 .82.18 1.51.54 2.07.38.56.98 1.2 1.8 1.92l2.01 1.77c1.2 1.02 2.13 2.1 2.79 3.24.66 1.14.99 2.49.99 4.05 0 1.14-.27 2.18-.81 3.12-.52.92-1.26 1.65-2.22 2.19-.96.54-2.07.81-3.33.81Zm23.595 0c-2.64 0-4.52-.69-5.64-2.07-1.1-1.4-1.65-3.41-1.65-6.03V19.5c0-2.68.55-4.7 1.65-6.06 1.1-1.38 2.98-2.07 5.64-2.07 2.54 0 4.34.61 5.4 1.83 1.06 1.22 1.59 2.95 1.59 5.19v2.1h-5.25v-2.43c0-.94-.1-1.66-.3-2.16-.2-.5-.68-.75-1.44-.75-.76 0-1.26.27-1.5.81-.24.52-.36 1.25-.36 2.19v11.43c0 .96.12 1.7.36 2.22.26.5.76.75 1.5.75s1.21-.25 1.41-.75c.22-.52.33-1.26.33-2.22v-2.55h5.25v2.1c0 2.28-.53 4.06-1.59 5.34-1.06 1.26-2.86 1.89-5.4 1.89Zm16.905 0c-2.62 0-4.49-.67-5.61-2.01-1.12-1.36-1.68-3.36-1.68-6v-9.03c0-2.64.56-4.62 1.68-5.94 1.12-1.34 2.99-2.01 5.61-2.01 2.64 0 4.52.67 5.64 2.01 1.14 1.34 1.71 3.32 1.71 5.94v9.03c0 2.64-.57 4.64-1.71 6-1.12 1.34-3 2.01-5.64 2.01Zm0-3.81c.76 0 1.26-.25 1.5-.75.24-.52.36-1.22.36-2.1V18c0-.9-.12-1.6-.36-2.1s-.74-.75-1.5-.75c-.72 0-1.2.26-1.44.78-.24.5-.36 1.19-.36 2.07v11.7c0 .88.11 1.58.33 2.1.22.5.71.75 1.47.75Zm10.618-20.85h5.37v20.67h5.58V36h-10.95V11.7Zm13.301 0h5.37v20.67h5.58V36h-10.95V11.7Zm13.3 0h10.92v3.66h-5.55v6.03h4.23v3.72h-4.23v7.26h5.61V36h-10.98V11.7Zm20.378 24.66c-2.64 0-4.52-.69-5.64-2.07-1.1-1.4-1.65-3.41-1.65-6.03V19.5c0-2.68.55-4.7 1.65-6.06 1.1-1.38 2.98-2.07 5.64-2.07 2.54 0 4.34.61 5.4 1.83 1.06 1.22 1.59 2.95 1.59 5.19v2.1h-5.25v-2.43c0-.94-.1-1.66-.3-2.16-.2-.5-.68-.75-1.44-.75-.76 0-1.26.27-1.5.81-.24.52-.36 1.25-.36 2.19v11.43c0 .96.12 1.7.36 2.22.26.5.76.75 1.5.75s1.21-.25 1.41-.75c.22-.52.33-1.26.33-2.22v-2.55h5.25v2.1c0 2.28-.53 4.06-1.59 5.34-1.06 1.26-2.86 1.89-5.4 1.89Zm12.135-20.67h-3.66V11.7h12.69v3.99h-3.63V36h-5.4V15.69Zm11.199-3.99h5.37V36h-5.37V11.7Zm15.954 24.66c-2.62 0-4.49-.67-5.61-2.01-1.12-1.36-1.68-3.36-1.68-6v-9.03c0-2.64.56-4.62 1.68-5.94 1.12-1.34 2.99-2.01 5.61-2.01 2.64 0 4.52.67 5.64 2.01 1.14 1.34 1.71 3.32 1.71 5.94v9.03c0 2.64-.57 4.64-1.71 6-1.12 1.34-3 2.01-5.64 2.01Zm0-3.81c.76 0 1.26-.25 1.5-.75.24-.52.36-1.22.36-2.1V18c0-.9-.12-1.6-.36-2.1s-.74-.75-1.5-.75c-.72 0-1.2.26-1.44.78-.24.5-.36 1.19-.36 2.07v11.7c0 .88.11 1.58.33 2.1.22.5.71.75 1.47.75Zm10.618-20.85h3.78l4.98 11.7V11.7h4.44V36h-3.63l-4.98-12.6V36h-4.59V11.7Z"/></g><defs><clipPath id="a"><path fill="#fff" d="M0 0h276v45H0z"/></clipPath></defs></svg>
