<svg viewBox="0 0 34 34" xml:space="preserve" xmlns="http://www.w3.org/2000/svg"><g fill="#fff"><path d="M17.123 9.2c-1.44 0-2.642.503-3.604 1.32S11.994 12 11.832 14h2.937c.064-1 .303-1.231.716-1.611s.926-.618 1.541-.618c.615 0 1.116.174 1.504.571.389.396.583.882.583 1.48s-.187 1.094-.558 1.499l-1.772 1.769c-.518.518-.626.934-.78 1.249-.154.315-.003.794-.003 1.441V21h2v-.832c0-.646.289-1.148.581-1.504.112-.129.333-.287.521-.473.186-.187.448-.405.715-.656.267-.25.5-.457.662-.619.161-.161.404-.437.712-.825.533-.647.805-1.456.805-2.427 0-1.408-.45-2.503-1.356-3.289-.908-.783-2.077-1.175-3.517-1.175zM16.94 22.145c-.51 0-.946.179-1.311.534a1.72 1.72 0 0 0-.546 1.274c0 .493.186.914.558 1.262a1.87 1.87 0 0 0 1.322.521c.51 0 .947-.178 1.311-.533.363-.356.546-.781.546-1.274s-.187-.914-.559-1.263a1.862 1.862 0 0 0-1.321-.521z"/><path d="M17 0C7.611 0 0 7.611 0 17s7.611 17 17 17 17-7.611 17-17S26.389 0 17 0zm0 31C9.268 31 3 24.732 3 17S9.268 3 17 3s14 6.268 14 14-6.268 14-14 14z"/></g></svg>
